<?xml version="1.0" standalone="no"?>
<!DOCTYPE svg PUBLIC "-//W3C//DTD SVG 20010904//EN"
 "http://www.w3.org/TR/2001/REC-SVG-20010904/DTD/svg10.dtd">
<svg version="1.0" xmlns="http://www.w3.org/2000/svg"
 width="1000.000000pt" height="1000.000000pt" viewBox="0 0 1000.000000 1000.000000"
 preserveAspectRatio="xMidYMid meet">
<metadata>
Created by potrace 1.14, written by Peter Selinger 2001-2017
</metadata>
<g transform="translate(0.000000,1000.000000) scale(0.100000,-0.100000)"
fill="#000000" stroke="none">
<path d="M699 9996 c-2 -2 -22 -7 -44 -10 -38 -6 -92 -20 -125 -33 -8 -4 -17
-7 -20 -7 -10 -3 -115 -56 -135 -68 -123 -79 -237 -208 -295 -333 -12 -27 -26
-57 -30 -65 -4 -8 -16 -47 -26 -85 -19 -68 -19 -181 -19 -4395 0 -4007 1
-4329 17 -4385 30 -110 58 -172 115 -256 125 -188 293 -299 518 -344 60 -12
715 -14 4375 -12 4087 2 4308 3 4365 20 33 9 67 20 75 24 8 3 17 7 20 7 3 1
30 13 62 28 167 77 331 258 395 436 56 154 53 -159 50 4502 -1 2368 -6 4321
-11 4340 -76 323 -321 562 -641 626 -59 11 -753 13 -4356 14 -2357 0 -4288 -2
-4290 -4z"/>
</g>
</svg>
